<?xml version="1.0" encoding="utf-8" ?>
<svg style="background-color:white;" baseProfile="full" height="57.5mm" version="1.1" viewBox="0,0,306.20000000000005,57.5" width="306.20000000000005mm" xmlns="http://www.w3.org/2000/svg" xmlns:ev="http://www.w3.org/2001/xml-events" xmlns:xlink="http://www.w3.org/1999/xlink"><defs /><rect fill="#FFFFFF" height="57.5" width="306.20000000000005" x="0" y="0" /><text fill="#000000" style="font-size:6px; font-family:Arial; font-weight:bold;" x="10" y="10">热量摄入热力图</text><text fill="#000000" style="font-size:3px; font-family:Arial;" x="10" y="14.4">2026: 10天不足 · 15天达标 · 3天略高 · 0天超标</text><text fill="#000000" style="font-size:2.5px; font-family:Arial" x="10" y="18.3">Jan</text><rect fill="#E8EAED" height="4" rx="1" ry="1" width="4" x="10" y="19.7"><title>2025-12-29 - 暂无数据</title></rect><rect fill="#E8EAED" height="4" rx="1" ry="1" width="4" x="10" y="25.1"><title>2025-12-30 - 暂无数据</title></rect><rect fill="#E8EAED" height="4" rx="1" ry="1" width="4" x="10" y="30.5"><title>2025-12-31 - 暂无数据</title></rect><rect fill="#E8EAED" height="4" rx="1" ry="1" width="4" x="10" y="35.9"><title>2026-01-01 - 暂无数据</title></rect><rect fill="#E8EAED" height="4" rx="1" ry="1" width="4" x="10" y="41.300000000000004"><title>2026-01-02 - 暂无数据</title></rect><rect fill="#E8EAED" height="4" rx="1" ry="1" width="4" x="10" y="46.699999999999996"><title>2026-01-03 - 暂无数据</title></rect><rect fill="#E8EAED" height="4" rx="1" ry="1" width="4" x="10" y="52.1"><title>2026-01-04 - 暂无数据</title></rect><rect fill="#E8EAED" height="4" rx="1" ry="1" width="4" x="15.4" y="19.7"><title>2026-01-05 - 暂无数据</title></rect><rect fill="#E8EAED" height="4" rx="1" ry="1" width="4" x="15.4" y="25.1"><title>2026-01-06 - 暂无数据</title></rect><rect fill="#E8EAED" height="4" rx="1" ry="1" width="4" x="15.4" y="30.5"><title>2026-01-07 - 暂无数据</title></rect><rect fill="#E8EAED" height="4" rx="1" ry="1" width="4" x="15.4" y="35.9"><title>2026-01-08 - 暂无数据</title></rect><rect fill="#E8EAED" height="4" rx="1" ry="1" width="4" x="15.4" y="41.300000000000004"><title>2026-01-09 - 暂无数据</title></rect><rect fill="#E8EAED" height="4" rx="1" ry="1" width="4" x="15.4" y="46.699999999999996"><title>2026-01-10 - 暂无数据</title></rect><rect fill="#E8EAED" height="4" rx="1" ry="1" width="4" x="15.4" y="52.1"><title>2026-01-11 - 暂无数据</title></rect><rect fill="#E8EAED" height="4" rx="1" ry="1" width="4" x="20.8" y="19.7"><title>2026-01-12 - 暂无数据</title></rect><rect fill="#E8EAED" height="4" rx="1" ry="1" width="4" x="20.8" y="25.1"><title>2026-01-13 - 暂无数据</title></rect><rect fill="#E8EAED" height="4" rx="1" ry="1" width="4" x="20.8" y="30.5"><title>2026-01-14 - 暂无数据</title></rect><rect fill="#E8EAED" height="4" rx="1" ry="1" width="4" x="20.8" y="35.9"><title>2026-01-15 - 暂无数据</title></rect><rect fill="#E8EAED" height="4" rx="1" ry="1" width="4" x="20.8" y="41.300000000000004"><title>2026-01-16 - 暂无数据</title></rect><rect fill="#E8EAED" height="4" rx="1" ry="1" width="4" x="20.8" y="46.699999999999996"><title>2026-01-17 - 暂无数据</title></rect><rect fill="#E8EAED" height="4" rx="1" ry="1" width="4" x="20.8" y="52.1"><title>2026-01-18 - 暂无数据</title></rect><rect fill="#E8EAED" height="4" rx="1" ry="1" width="4" x="26.200000000000003" y="19.7"><title>2026-01-19 - 暂无数据</title></rect><rect fill="#E8EAED" height="4" rx="1" ry="1" width="4" x="26.200000000000003" y="25.1"><title>2026-01-20 - 暂无数据</title></rect><rect fill="#E8EAED" height="4" rx="1" ry="1" width="4" x="26.200000000000003" y="30.5"><title>2026-01-21 - 暂无数据</title></rect><rect fill="#E8EAED" height="4" rx="1" ry="1" width="4" x="26.200000000000003" y="35.9"><title>2026-01-22 - 暂无数据</title></rect><rect fill="#E8EAED" height="4" rx="1" ry="1" width="4" x="26.200000000000003" y="41.300000000000004"><title>2026-01-23 - 暂无数据</title></rect><rect fill="#E8EAED" height="4" rx="1" ry="1" width="4" x="26.200000000000003" y="46.699999999999996"><title>2026-01-24 - 暂无数据</title></rect><rect fill="#E8EAED" height="4" rx="1" ry="1" width="4" x="26.200000000000003" y="52.1"><title>2026-01-25 - 暂无数据</title></rect><rect fill="#E8EAED" height="4" rx="1" ry="1" width="4" x="31.6" y="19.7"><title>2026-01-26 - 暂无数据</title></rect><rect fill="#E8EAED" height="4" rx="1" ry="1" width="4" x="31.6" y="25.1"><title>2026-01-27 - 暂无数据</title></rect><rect fill="#E8EAED" height="4" rx="1" ry="1" width="4" x="31.6" y="30.5"><title>2026-01-28 - 暂无数据</title></rect><rect fill="#E8EAED" height="4" rx="1" ry="1" width="4" x="31.6" y="35.9"><title>2026-01-29 - 暂无数据</title></rect><rect fill="#E8EAED" height="4" rx="1" ry="1" width="4" x="31.6" y="41.300000000000004"><title>2026-01-30 - 暂无数据</title></rect><rect fill="#E8EAED" height="4" rx="1" ry="1" width="4" x="31.6" y="46.699999999999996"><title>2026-01-31 - 暂无数据</title></rect><rect fill="#E8EAED" height="4" rx="1" ry="1" width="4" x="31.6" y="52.1"><title>2026-02-01 - 暂无数据</title></rect><text fill="#000000" style="font-size:2.5px; font-family:Arial" x="37.0" y="18.3">Feb</text><rect fill="#E8EAED" height="4" rx="1" ry="1" width="4" x="37.0" y="19.7"><title>2026-02-02 - 暂无数据</title></rect><rect fill="#E8EAED" height="4" rx="1" ry="1" width="4" x="37.0" y="25.1"><title>2026-02-03 - 暂无数据</title></rect><rect fill="#E8EAED" height="4" rx="1" ry="1" width="4" x="37.0" y="30.5"><title>2026-02-04 - 暂无数据</title></rect><rect fill="#E8EAED" height="4" rx="1" ry="1" width="4" x="37.0" y="35.9"><title>2026-02-05 - 暂无数据</title></rect><rect fill="#E8EAED" height="4" rx="1" ry="1" width="4" x="37.0" y="41.300000000000004"><title>2026-02-06 - 暂无数据</title></rect><rect fill="#E8EAED" height="4" rx="1" ry="1" width="4" x="37.0" y="46.699999999999996"><title>2026-02-07 - 暂无数据</title></rect><rect fill="#E8EAED" height="4" rx="1" ry="1" width="4" x="37.0" y="52.1"><title>2026-02-08 - 暂无数据</title></rect><rect fill="#E8EAED" height="4" rx="1" ry="1" width="4" x="42.4" y="19.7"><title>2026-02-09 - 暂无数据</title></rect><rect fill="#E8EAED" height="4" rx="1" ry="1" width="4" x="42.4" y="25.1"><title>2026-02-10 - 暂无数据</title></rect><rect fill="#E8EAED" height="4" rx="1" ry="1" width="4" x="42.4" y="30.5"><title>2026-02-11 - 暂无数据</title></rect><rect fill="#E8EAED" height="4" rx="1" ry="1" width="4" x="42.4" y="35.9"><title>2026-02-12 - 暂无数据</title></rect><rect fill="#E8EAED" height="4" rx="1" ry="1" width="4" x="42.4" y="41.300000000000004"><title>2026-02-13 - 暂无数据</title></rect><rect fill="#E8EAED" height="4" rx="1" ry="1" width="4" x="42.4" y="46.699999999999996"><title>2026-02-14 - 暂无数据</title></rect><rect fill="#E8EAED" height="4" rx="1" ry="1" width="4" x="42.4" y="52.1"><title>2026-02-15 - 暂无数据</title></rect><rect fill="#E8EAED" height="4" rx="1" ry="1" width="4" x="47.8" y="19.7"><title>2026-02-16 - 暂无数据</title></rect><rect fill="#E8EAED" height="4" rx="1" ry="1" width="4" x="47.8" y="25.1"><title>2026-02-17 - 暂无数据</title></rect><rect fill="#E8EAED" height="4" rx="1" ry="1" width="4" x="47.8" y="30.5"><title>2026-02-18 - 暂无数据</title></rect><rect fill="#E8EAED" height="4" rx="1" ry="1" width="4" x="47.8" y="35.9"><title>2026-02-19 - 暂无数据</title></rect><rect fill="#E8EAED" height="4" rx="1" ry="1" width="4" x="47.8" y="41.300000000000004"><title>2026-02-20 - 暂无数据</title></rect><rect fill="#E8EAED" height="4" rx="1" ry="1" width="4" x="47.8" y="46.699999999999996"><title>2026-02-21 - 暂无数据</title></rect><rect fill="#E8EAED" height="4" rx="1" ry="1" width="4" x="47.8" y="52.1"><title>2026-02-22 - 暂无数据</title></rect><rect fill="#E8EAED" height="4" rx="1" ry="1" width="4" x="53.199999999999996" y="19.7"><title>2026-02-23 - 暂无数据</title></rect><rect fill="#E8EAED" height="4" rx="1" ry="1" width="4" x="53.199999999999996" y="25.1"><title>2026-02-24 - 暂无数据</title></rect><rect fill="#E8EAED" height="4" rx="1" ry="1" width="4" x="53.199999999999996" y="30.5"><title>2026-02-25 - 暂无数据</title></rect><rect fill="#E8EAED" height="4" rx="1" ry="1" width="4" x="53.199999999999996" y="35.9"><title>2026-02-26 - 暂无数据</title></rect><rect fill="#E8EAED" height="4" rx="1" ry="1" width="4" x="53.199999999999996" y="41.300000000000004"><title>2026-02-27 - 暂无数据</title></rect><rect fill="#E8EAED" height="4" rx="1" ry="1" width="4" x="53.199999999999996" y="46.699999999999996"><title>2026-02-28 - 暂无数据</title></rect><rect fill="#E8EAED" height="4" rx="1" ry="1" width="4" x="53.199999999999996" y="52.1"><title>2026-03-01 - 暂无数据</title></rect><text fill="#000000" style="font-size:2.5px; font-family:Arial" x="58.599999999999994" y="18.3">Mar</text><rect fill="#E8EAED" height="4" rx="1" ry="1" width="4" x="58.599999999999994" y="19.7"><title>2026-03-02 - 暂无数据</title></rect><rect fill="#E8EAED" height="4" rx="1" ry="1" width="4" x="58.599999999999994" y="25.1"><title>2026-03-03 - 暂无数据</title></rect><rect fill="#E8EAED" height="4" rx="1" ry="1" width="4" x="58.599999999999994" y="30.5"><title>2026-03-04 - 暂无数据</title></rect><rect fill="#E8EAED" height="4" rx="1" ry="1" width="4" x="58.599999999999994" y="35.9"><title>2026-03-05 - 暂无数据</title></rect><rect fill="#E8EAED" height="4" rx="1" ry="1" width="4" x="58.599999999999994" y="41.300000000000004"><title>2026-03-06 - 暂无数据</title></rect><rect fill="#E8EAED" height="4" rx="1" ry="1" width="4" x="58.599999999999994" y="46.699999999999996"><title>2026-03-07 - 暂无数据</title></rect><rect fill="#E8EAED" height="4" rx="1" ry="1" width="4" x="58.599999999999994" y="52.1"><title>2026-03-08 - 暂无数据</title></rect><rect fill="#E8EAED" height="4" rx="1" ry="1" width="4" x="63.99999999999999" y="19.7"><title>2026-03-09 - 暂无数据</title></rect><rect fill="#E8EAED" height="4" rx="1" ry="1" width="4" x="63.99999999999999" y="25.1"><title>2026-03-10 - 暂无数据</title></rect><rect fill="#E8EAED" height="4" rx="1" ry="1" width="4" x="63.99999999999999" y="30.5"><title>2026-03-11 - 暂无数据</title></rect><rect fill="#E8EAED" height="4" rx="1" ry="1" width="4" x="63.99999999999999" y="35.9"><title>2026-03-12 - 暂无数据</title></rect><rect fill="#E8EAED" height="4" rx="1" ry="1" width="4" x="63.99999999999999" y="41.300000000000004"><title>2026-03-13 - 暂无数据</title></rect><rect fill="#E8EAED" height="4" rx="1" ry="1" width="4" x="63.99999999999999" y="46.699999999999996"><title>2026-03-14 - 暂无数据</title></rect><rect fill="#E8EAED" height="4" rx="1" ry="1" width="4" x="63.99999999999999" y="52.1"><title>2026-03-15 - 暂无数据</title></rect><rect fill="#E8EAED" height="4" rx="1" ry="1" width="4" x="69.39999999999999" y="19.7"><title>2026-03-16 - 暂无数据</title></rect><rect fill="#E8EAED" height="4" rx="1" ry="1" width="4" x="69.39999999999999" y="25.1"><title>2026-03-17 - 暂无数据</title></rect><rect fill="#E8EAED" height="4" rx="1" ry="1" width="4" x="69.39999999999999" y="30.5"><title>2026-03-18 - 暂无数据</title></rect><rect fill="#E8EAED" height="4" rx="1" ry="1" width="4" x="69.39999999999999" y="35.9"><title>2026-03-19 - 暂无数据</title></rect><rect fill="#E8EAED" height="4" rx="1" ry="1" width="4" x="69.39999999999999" y="41.300000000000004"><title>2026-03-20 - 暂无数据</title></rect><rect fill="#E8EAED" height="4" rx="1" ry="1" width="4" x="69.39999999999999" y="46.699999999999996"><title>2026-03-21 - 暂无数据</title></rect><rect fill="#E8EAED" height="4" rx="1" ry="1" width="4" x="69.39999999999999" y="52.1"><title>2026-03-22 - 暂无数据</title></rect><rect fill="#E8EAED" height="4" rx="1" ry="1" width="4" x="74.8" y="19.7"><title>2026-03-23 - 暂无数据</title></rect><rect fill="#E8EAED" height="4" rx="1" ry="1" width="4" x="74.8" y="25.1"><title>2026-03-24 - 暂无数据</title></rect><rect fill="#E8EAED" height="4" rx="1" ry="1" width="4" x="74.8" y="30.5"><title>2026-03-25 - 暂无数据</title></rect><rect fill="#E8EAED" height="4" rx="1" ry="1" width="4" x="74.8" y="35.9"><title>2026-03-26 - 暂无数据</title></rect><rect fill="#E8EAED" height="4" rx="1" ry="1" width="4" x="74.8" y="41.300000000000004"><title>2026-03-27 - 暂无数据</title></rect><rect fill="#E8EAED" height="4" rx="1" ry="1" width="4" x="74.8" y="46.699999999999996"><title>2026-03-28 - 暂无数据</title></rect><rect fill="#E8EAED" height="4" rx="1" ry="1" width="4" x="74.8" y="52.1"><title>2026-03-29 - 暂无数据</title></rect><rect fill="#E8EAED" height="4" rx="1" ry="1" width="4" x="80.2" y="19.7"><title>2026-03-30 - 暂无数据</title></rect><rect fill="#E8EAED" height="4" rx="1" ry="1" width="4" x="80.2" y="25.1"><title>2026-03-31 - 暂无数据</title></rect><rect fill="#E8EAED" height="4" rx="1" ry="1" width="4" x="80.2" y="30.5"><title>2026-04-01 - 暂无数据</title></rect><rect fill="#E8EAED" height="4" rx="1" ry="1" width="4" x="80.2" y="35.9"><title>2026-04-02 - 暂无数据</title></rect><rect fill="#E8EAED" height="4" rx="1" ry="1" width="4" x="80.2" y="41.300000000000004"><title>2026-04-03 - 暂无数据</title></rect><rect fill="#E8EAED" height="4" rx="1" ry="1" width="4" x="80.2" y="46.699999999999996"><title>2026-04-04 - 暂无数据</title></rect><rect fill="#E8EAED" height="4" rx="1" ry="1" width="4" x="80.2" y="52.1"><title>2026-04-05 - 暂无数据</title></rect><text fill="#000000" style="font-size:2.5px; font-family:Arial" x="85.60000000000001" y="18.3">Apr</text><rect fill="#E8EAED" height="4" rx="1" ry="1" width="4" x="85.60000000000001" y="19.7"><title>2026-04-06 - 暂无数据</title></rect><rect fill="#E8EAED" height="4" rx="1" ry="1" width="4" x="85.60000000000001" y="25.1"><title>2026-04-07 - 暂无数据</title></rect><rect fill="#E8EAED" height="4" rx="1" ry="1" width="4" x="85.60000000000001" y="30.5"><title>2026-04-08 - 暂无数据</title></rect><rect fill="#E8EAED" height="4" rx="1" ry="1" width="4" x="85.60000000000001" y="35.9"><title>2026-04-09 - 暂无数据</title></rect><rect fill="#E8EAED" height="4" rx="1" ry="1" width="4" x="85.60000000000001" y="41.300000000000004"><title>2026-04-10 - 暂无数据</title></rect><rect fill="#E8EAED" height="4" rx="1" ry="1" width="4" x="85.60000000000001" y="46.699999999999996"><title>2026-04-11 - 暂无数据</title></rect><rect fill="#E8EAED" height="4" rx="1" ry="1" width="4" x="85.60000000000001" y="52.1"><title>2026-04-12 - 暂无数据</title></rect><rect fill="#E8EAED" height="4" rx="1" ry="1" width="4" x="91.00000000000001" y="19.7"><title>2026-04-13 - 暂无数据</title></rect><rect fill="#E8EAED" height="4" rx="1" ry="1" width="4" x="91.00000000000001" y="25.1"><title>2026-04-14 - 暂无数据</title></rect><rect fill="#E8EAED" height="4" rx="1" ry="1" width="4" x="91.00000000000001" y="30.5"><title>2026-04-15 - 暂无数据</title></rect><rect fill="#E8EAED" height="4" rx="1" ry="1" width="4" x="91.00000000000001" y="35.9"><title>2026-04-16 - 暂无数据</title></rect><rect fill="#E8EAED" height="4" rx="1" ry="1" width="4" x="91.00000000000001" y="41.300000000000004"><title>2026-04-17 - 暂无数据</title></rect><rect fill="#E8EAED" height="4" rx="1" ry="1" width="4" x="91.00000000000001" y="46.699999999999996"><title>2026-04-18 - 暂无数据</title></rect><rect fill="#E8EAED" height="4" rx="1" ry="1" width="4" x="91.00000000000001" y="52.1"><title>2026-04-19 - 暂无数据</title></rect><rect fill="#E8EAED" height="4" rx="1" ry="1" width="4" x="96.40000000000002" y="19.7"><title>2026-04-20 - 暂无数据</title></rect><rect fill="#E8EAED" height="4" rx="1" ry="1" width="4" x="96.40000000000002" y="25.1"><title>2026-04-21 - 暂无数据</title></rect><rect fill="#E8EAED" height="4" rx="1" ry="1" width="4" x="96.40000000000002" y="30.5"><title>2026-04-22 - 暂无数据</title></rect><rect fill="#E8EAED" height="4" rx="1" ry="1" width="4" x="96.40000000000002" y="35.9"><title>2026-04-23 - 暂无数据</title></rect><rect fill="#E8EAED" height="4" rx="1" ry="1" width="4" x="96.40000000000002" y="41.300000000000004"><title>2026-04-24 - 暂无数据</title></rect><rect fill="#E8EAED" height="4" rx="1" ry="1" width="4" x="96.40000000000002" y="46.699999999999996"><title>2026-04-25 - 暂无数据</title></rect><rect fill="#E8EAED" height="4" rx="1" ry="1" width="4" x="96.40000000000002" y="52.1"><title>2026-04-26 - 暂无数据</title></rect><rect fill="#E8EAED" height="4" rx="1" ry="1" width="4" x="101.80000000000003" y="19.7"><title>2026-04-27 - 暂无数据</title></rect><rect fill="#E8EAED" height="4" rx="1" ry="1" width="4" x="101.80000000000003" y="25.1"><title>2026-04-28 - 暂无数据</title></rect><rect fill="#E8EAED" height="4" rx="1" ry="1" width="4" x="101.80000000000003" y="30.5"><title>2026-04-29 - 暂无数据</title></rect><rect fill="#E8EAED" height="4" rx="1" ry="1" width="4" x="101.80000000000003" y="35.9"><title>2026-04-30 - 暂无数据</title></rect><rect fill="#E8EAED" height="4" rx="1" ry="1" width="4" x="101.80000000000003" y="41.300000000000004"><title>2026-05-01 - 暂无数据</title></rect><rect fill="#90b1fb" height="4" rx="1" ry="1" width="4" x="101.80000000000003" y="46.699999999999996"><title>2026-05-02 - 热量摄入不足 (1380 kcal)</title></rect><rect fill="#E8EAED" height="4" rx="1" ry="1" width="4" x="101.80000000000003" y="52.1"><title>2026-05-03 - 暂无数据</title></rect><text fill="#000000" style="font-size:2.5px; font-family:Arial" x="107.20000000000003" y="18.3">May</text><rect fill="#1ed760" height="4" rx="1" ry="1" width="4" x="107.20000000000003" y="19.7"><title>2026-05-04 - 热量摄入达标 (1862 kcal)</title></rect><rect fill="#1ed760" height="4" rx="1" ry="1" width="4" x="107.20000000000003" y="25.1"><title>2026-05-05 - 热量摄入达标 (1610 kcal)</title></rect><rect fill="#1ed760" height="4" rx="1" ry="1" width="4" x="107.20000000000003" y="30.5"><title>2026-05-06 - 热量摄入达标 (1650 kcal)</title></rect><rect fill="#1ed760" height="4" rx="1" ry="1" width="4" x="107.20000000000003" y="35.9"><title>2026-05-07 - 热量摄入达标 (1517 kcal)</title></rect><rect fill="#90b1fb" height="4" rx="1" ry="1" width="4" x="107.20000000000003" y="41.300000000000004"><title>2026-05-08 - 热量摄入不足 (1100 kcal)</title></rect><rect fill="#90b1fb" height="4" rx="1" ry="1" width="4" x="107.20000000000003" y="46.699999999999996"><title>2026-05-09 - 热量摄入不足 (1302 kcal)</title></rect><rect fill="#1ed760" height="4" rx="1" ry="1" width="4" x="107.20000000000003" y="52.1"><title>2026-05-10 - 热量摄入达标 (1590 kcal)</title></rect><rect fill="#90b1fb" height="4" rx="1" ry="1" width="4" x="112.60000000000004" y="19.7"><title>2026-05-11 - 热量摄入不足 (1117 kcal)</title></rect><rect fill="#1ed760" height="4" rx="1" ry="1" width="4" x="112.60000000000004" y="25.1"><title>2026-05-12 - 热量摄入达标 (1770 kcal)</title></rect><rect fill="#ff8400" height="4" rx="1" ry="1" width="4" x="112.60000000000004" y="30.5"><title>2026-05-13 - 热量摄入略高 (1964 kcal)</title></rect><rect fill="#1ed760" height="4" rx="1" ry="1" width="4" x="112.60000000000004" y="35.9"><title>2026-05-14 - 热量摄入达标 (1755 kcal)</title></rect><rect fill="#ff8400" height="4" rx="1" ry="1" width="4" x="112.60000000000004" y="41.300000000000004"><title>2026-05-15 - 热量摄入略高 (1998 kcal)</title></rect><rect fill="#1ed760" height="4" rx="1" ry="1" width="4" x="112.60000000000004" y="46.699999999999996"><title>2026-05-16 - 热量摄入达标 (1890 kcal)</title></rect><rect fill="#ff8400" height="4" rx="1" ry="1" width="4" x="112.60000000000004" y="52.1"><title>2026-05-17 - 热量摄入略高 (2070 kcal)</title></rect><rect fill="#1ed760" height="4" rx="1" ry="1" width="4" x="118.00000000000004" y="19.7"><title>2026-05-18 - 热量摄入达标 (1498 kcal)</title></rect><rect fill="#90b1fb" height="4" rx="1" ry="1" width="4" x="118.00000000000004" y="25.1"><title>2026-05-19 - 热量摄入不足 (1300 kcal)</title></rect><rect fill="#1ed760" height="4" rx="1" ry="1" width="4" x="118.00000000000004" y="30.5"><title>2026-05-20 - 热量摄入达标 (1695 kcal)</title></rect><rect fill="#1ed760" height="4" rx="1" ry="1" width="4" x="118.00000000000004" y="35.9"><title>2026-05-21 - 热量摄入达标 (1730 kcal)</title></rect><rect fill="#90b1fb" height="4" rx="1" ry="1" width="4" x="118.00000000000004" y="41.300000000000004"><title>2026-05-22 - 热量摄入不足 (1110 kcal)</title></rect><rect fill="#90b1fb" height="4" rx="1" ry="1" width="4" x="118.00000000000004" y="46.699999999999996"><title>2026-05-23 - 热量摄入不足 (1399 kcal)</title></rect><rect fill="#90b1fb" height="4" rx="1" ry="1" width="4" x="118.00000000000004" y="52.1"><title>2026-05-24 - 热量摄入不足 (1010 kcal)</title></rect><rect fill="#1ed760" height="4" rx="1" ry="1" width="4" x="123.40000000000005" y="19.7"><title>2026-05-25 - 热量摄入达标 (1610 kcal)</title></rect><rect fill="#1ed760" height="4" rx="1" ry="1" width="4" x="123.40000000000005" y="25.1"><title>2026-05-26 - 热量摄入达标 (1400 kcal)</title></rect><rect fill="#90b1fb" height="4" rx="1" ry="1" width="4" x="123.40000000000005" y="30.5"><title>2026-05-27 - 热量摄入不足 (1180 kcal)</title></rect><rect fill="#90b1fb" height="4" rx="1" ry="1" width="4" x="123.40000000000005" y="35.9"><title>2026-05-28 - 热量摄入不足 (1000 kcal)</title></rect><rect fill="#1ed760" height="4" rx="1" ry="1" width="4" x="123.40000000000005" y="41.300000000000004"><title>2026-05-29 - 热量摄入达标 (1680 kcal)</title></rect><rect fill="#1ed760" height="4" rx="1" ry="1" width="4" x="123.40000000000005" y="46.699999999999996"><title>2026-05-30 - 热量摄入达标 (1720 kcal)</title></rect><rect fill="#E8EAED" height="4" rx="1" ry="1" width="4" x="123.40000000000005" y="52.1"><title>2026-05-31 - 暂无数据 (0 kcal)</title></rect><text fill="#000000" style="font-size:2.5px; font-family:Arial" x="128.80000000000004" y="18.3">Jun</text><rect fill="#E8EAED" height="4" rx="1" ry="1" width="4" x="128.80000000000004" y="19.7"><title>2026-06-01 - 暂无数据</title></rect><rect fill="#E8EAED" height="4" rx="1" ry="1" width="4" x="128.80000000000004" y="25.1"><title>2026-06-02 - 暂无数据</title></rect><rect fill="#E8EAED" height="4" rx="1" ry="1" width="4" x="128.80000000000004" y="30.5"><title>2026-06-03 - 暂无数据</title></rect><rect fill="#E8EAED" height="4" rx="1" ry="1" width="4" x="128.80000000000004" y="35.9"><title>2026-06-04 - 暂无数据</title></rect><rect fill="#E8EAED" height="4" rx="1" ry="1" width="4" x="128.80000000000004" y="41.300000000000004"><title>2026-06-05 - 暂无数据</title></rect><rect fill="#E8EAED" height="4" rx="1" ry="1" width="4" x="128.80000000000004" y="46.699999999999996"><title>2026-06-06 - 暂无数据</title></rect><rect fill="#E8EAED" height="4" rx="1" ry="1" width="4" x="128.80000000000004" y="52.1"><title>2026-06-07 - 暂无数据</title></rect><rect fill="#E8EAED" height="4" rx="1" ry="1" width="4" x="134.20000000000005" y="19.7"><title>2026-06-08 - 暂无数据</title></rect><rect fill="#E8EAED" height="4" rx="1" ry="1" width="4" x="134.20000000000005" y="25.1"><title>2026-06-09 - 暂无数据</title></rect><rect fill="#E8EAED" height="4" rx="1" ry="1" width="4" x="134.20000000000005" y="30.5"><title>2026-06-10 - 暂无数据</title></rect><rect fill="#E8EAED" height="4" rx="1" ry="1" width="4" x="134.20000000000005" y="35.9"><title>2026-06-11 - 暂无数据</title></rect><rect fill="#E8EAED" height="4" rx="1" ry="1" width="4" x="134.20000000000005" y="41.300000000000004"><title>2026-06-12 - 暂无数据</title></rect><rect fill="#E8EAED" height="4" rx="1" ry="1" width="4" x="134.20000000000005" y="46.699999999999996"><title>2026-06-13 - 暂无数据</title></rect><rect fill="#E8EAED" height="4" rx="1" ry="1" width="4" x="134.20000000000005" y="52.1"><title>2026-06-14 - 暂无数据</title></rect><rect fill="#E8EAED" height="4" rx="1" ry="1" width="4" x="139.60000000000005" y="19.7"><title>2026-06-15 - 暂无数据</title></rect><rect fill="#E8EAED" height="4" rx="1" ry="1" width="4" x="139.60000000000005" y="25.1"><title>2026-06-16 - 暂无数据</title></rect><rect fill="#E8EAED" height="4" rx="1" ry="1" width="4" x="139.60000000000005" y="30.5"><title>2026-06-17 - 暂无数据</title></rect><rect fill="#E8EAED" height="4" rx="1" ry="1" width="4" x="139.60000000000005" y="35.9"><title>2026-06-18 - 暂无数据</title></rect><rect fill="#E8EAED" height="4" rx="1" ry="1" width="4" x="139.60000000000005" y="41.300000000000004"><title>2026-06-19 - 暂无数据</title></rect><rect fill="#E8EAED" height="4" rx="1" ry="1" width="4" x="139.60000000000005" y="46.699999999999996"><title>2026-06-20 - 暂无数据</title></rect><rect fill="#E8EAED" height="4" rx="1" ry="1" width="4" x="139.60000000000005" y="52.1"><title>2026-06-21 - 暂无数据</title></rect><rect fill="#E8EAED" height="4" rx="1" ry="1" width="4" x="145.00000000000006" y="19.7"><title>2026-06-22 - 暂无数据</title></rect><rect fill="#E8EAED" height="4" rx="1" ry="1" width="4" x="145.00000000000006" y="25.1"><title>2026-06-23 - 暂无数据</title></rect><rect fill="#E8EAED" height="4" rx="1" ry="1" width="4" x="145.00000000000006" y="30.5"><title>2026-06-24 - 暂无数据</title></rect><rect fill="#E8EAED" height="4" rx="1" ry="1" width="4" x="145.00000000000006" y="35.9"><title>2026-06-25 - 暂无数据</title></rect><rect fill="#E8EAED" height="4" rx="1" ry="1" width="4" x="145.00000000000006" y="41.300000000000004"><title>2026-06-26 - 暂无数据</title></rect><rect fill="#E8EAED" height="4" rx="1" ry="1" width="4" x="145.00000000000006" y="46.699999999999996"><title>2026-06-27 - 暂无数据</title></rect><rect fill="#E8EAED" height="4" rx="1" ry="1" width="4" x="145.00000000000006" y="52.1"><title>2026-06-28 - 暂无数据</title></rect><rect fill="#E8EAED" height="4" rx="1" ry="1" width="4" x="150.40000000000006" y="19.7"><title>2026-06-29 - 暂无数据</title></rect><rect fill="#E8EAED" height="4" rx="1" ry="1" width="4" x="150.40000000000006" y="25.1"><title>2026-06-30 - 暂无数据</title></rect><rect fill="#E8EAED" height="4" rx="1" ry="1" width="4" x="150.40000000000006" y="30.5"><title>2026-07-01 - 暂无数据</title></rect><rect fill="#E8EAED" height="4" rx="1" ry="1" width="4" x="150.40000000000006" y="35.9"><title>2026-07-02 - 暂无数据</title></rect><rect fill="#E8EAED" height="4" rx="1" ry="1" width="4" x="150.40000000000006" y="41.300000000000004"><title>2026-07-03 - 暂无数据</title></rect><rect fill="#E8EAED" height="4" rx="1" ry="1" width="4" x="150.40000000000006" y="46.699999999999996"><title>2026-07-04 - 暂无数据</title></rect><rect fill="#E8EAED" height="4" rx="1" ry="1" width="4" x="150.40000000000006" y="52.1"><title>2026-07-05 - 暂无数据</title></rect><text fill="#000000" style="font-size:2.5px; font-family:Arial" x="155.80000000000007" y="18.3">Jul</text><rect fill="#E8EAED" height="4" rx="1" ry="1" width="4" x="155.80000000000007" y="19.7"><title>2026-07-06 - 暂无数据</title></rect><rect fill="#E8EAED" height="4" rx="1" ry="1" width="4" x="155.80000000000007" y="25.1"><title>2026-07-07 - 暂无数据</title></rect><rect fill="#E8EAED" height="4" rx="1" ry="1" width="4" x="155.80000000000007" y="30.5"><title>2026-07-08 - 暂无数据</title></rect><rect fill="#E8EAED" height="4" rx="1" ry="1" width="4" x="155.80000000000007" y="35.9"><title>2026-07-09 - 暂无数据</title></rect><rect fill="#E8EAED" height="4" rx="1" ry="1" width="4" x="155.80000000000007" y="41.300000000000004"><title>2026-07-10 - 暂无数据</title></rect><rect fill="#E8EAED" height="4" rx="1" ry="1" width="4" x="155.80000000000007" y="46.699999999999996"><title>2026-07-11 - 暂无数据</title></rect><rect fill="#E8EAED" height="4" rx="1" ry="1" width="4" x="155.80000000000007" y="52.1"><title>2026-07-12 - 暂无数据</title></rect><rect fill="#E8EAED" height="4" rx="1" ry="1" width="4" x="161.20000000000007" y="19.7"><title>2026-07-13 - 暂无数据</title></rect><rect fill="#E8EAED" height="4" rx="1" ry="1" width="4" x="161.20000000000007" y="25.1"><title>2026-07-14 - 暂无数据</title></rect><rect fill="#E8EAED" height="4" rx="1" ry="1" width="4" x="161.20000000000007" y="30.5"><title>2026-07-15 - 暂无数据</title></rect><rect fill="#E8EAED" height="4" rx="1" ry="1" width="4" x="161.20000000000007" y="35.9"><title>2026-07-16 - 暂无数据</title></rect><rect fill="#E8EAED" height="4" rx="1" ry="1" width="4" x="161.20000000000007" y="41.300000000000004"><title>2026-07-17 - 暂无数据</title></rect><rect fill="#E8EAED" height="4" rx="1" ry="1" width="4" x="161.20000000000007" y="46.699999999999996"><title>2026-07-18 - 暂无数据</title></rect><rect fill="#E8EAED" height="4" rx="1" ry="1" width="4" x="161.20000000000007" y="52.1"><title>2026-07-19 - 暂无数据</title></rect><rect fill="#E8EAED" height="4" rx="1" ry="1" width="4" x="166.60000000000008" y="19.7"><title>2026-07-20 - 暂无数据</title></rect><rect fill="#E8EAED" height="4" rx="1" ry="1" width="4" x="166.60000000000008" y="25.1"><title>2026-07-21 - 暂无数据</title></rect><rect fill="#E8EAED" height="4" rx="1" ry="1" width="4" x="166.60000000000008" y="30.5"><title>2026-07-22 - 暂无数据</title></rect><rect fill="#E8EAED" height="4" rx="1" ry="1" width="4" x="166.60000000000008" y="35.9"><title>2026-07-23 - 暂无数据</title></rect><rect fill="#E8EAED" height="4" rx="1" ry="1" width="4" x="166.60000000000008" y="41.300000000000004"><title>2026-07-24 - 暂无数据</title></rect><rect fill="#E8EAED" height="4" rx="1" ry="1" width="4" x="166.60000000000008" y="46.699999999999996"><title>2026-07-25 - 暂无数据</title></rect><rect fill="#E8EAED" height="4" rx="1" ry="1" width="4" x="166.60000000000008" y="52.1"><title>2026-07-26 - 暂无数据</title></rect><rect fill="#E8EAED" height="4" rx="1" ry="1" width="4" x="172.00000000000009" y="19.7"><title>2026-07-27 - 暂无数据</title></rect><rect fill="#E8EAED" height="4" rx="1" ry="1" width="4" x="172.00000000000009" y="25.1"><title>2026-07-28 - 暂无数据</title></rect><rect fill="#E8EAED" height="4" rx="1" ry="1" width="4" x="172.00000000000009" y="30.5"><title>2026-07-29 - 暂无数据</title></rect><rect fill="#E8EAED" height="4" rx="1" ry="1" width="4" x="172.00000000000009" y="35.9"><title>2026-07-30 - 暂无数据</title></rect><rect fill="#E8EAED" height="4" rx="1" ry="1" width="4" x="172.00000000000009" y="41.300000000000004"><title>2026-07-31 - 暂无数据</title></rect><rect fill="#E8EAED" height="4" rx="1" ry="1" width="4" x="172.00000000000009" y="46.699999999999996"><title>2026-08-01 - 暂无数据</title></rect><rect fill="#E8EAED" height="4" rx="1" ry="1" width="4" x="172.00000000000009" y="52.1"><title>2026-08-02 - 暂无数据</title></rect><text fill="#000000" style="font-size:2.5px; font-family:Arial" x="177.4000000000001" y="18.3">Aug</text><rect fill="#E8EAED" height="4" rx="1" ry="1" width="4" x="177.4000000000001" y="19.7"><title>2026-08-03 - 暂无数据</title></rect><rect fill="#E8EAED" height="4" rx="1" ry="1" width="4" x="177.4000000000001" y="25.1"><title>2026-08-04 - 暂无数据</title></rect><rect fill="#E8EAED" height="4" rx="1" ry="1" width="4" x="177.4000000000001" y="30.5"><title>2026-08-05 - 暂无数据</title></rect><rect fill="#E8EAED" height="4" rx="1" ry="1" width="4" x="177.4000000000001" y="35.9"><title>2026-08-06 - 暂无数据</title></rect><rect fill="#E8EAED" height="4" rx="1" ry="1" width="4" x="177.4000000000001" y="41.300000000000004"><title>2026-08-07 - 暂无数据</title></rect><rect fill="#E8EAED" height="4" rx="1" ry="1" width="4" x="177.4000000000001" y="46.699999999999996"><title>2026-08-08 - 暂无数据</title></rect><rect fill="#E8EAED" height="4" rx="1" ry="1" width="4" x="177.4000000000001" y="52.1"><title>2026-08-09 - 暂无数据</title></rect><rect fill="#E8EAED" height="4" rx="1" ry="1" width="4" x="182.8000000000001" y="19.7"><title>2026-08-10 - 暂无数据</title></rect><rect fill="#E8EAED" height="4" rx="1" ry="1" width="4" x="182.8000000000001" y="25.1"><title>2026-08-11 - 暂无数据</title></rect><rect fill="#E8EAED" height="4" rx="1" ry="1" width="4" x="182.8000000000001" y="30.5"><title>2026-08-12 - 暂无数据</title></rect><rect fill="#E8EAED" height="4" rx="1" ry="1" width="4" x="182.8000000000001" y="35.9"><title>2026-08-13 - 暂无数据</title></rect><rect fill="#E8EAED" height="4" rx="1" ry="1" width="4" x="182.8000000000001" y="41.300000000000004"><title>2026-08-14 - 暂无数据</title></rect><rect fill="#E8EAED" height="4" rx="1" ry="1" width="4" x="182.8000000000001" y="46.699999999999996"><title>2026-08-15 - 暂无数据</title></rect><rect fill="#E8EAED" height="4" rx="1" ry="1" width="4" x="182.8000000000001" y="52.1"><title>2026-08-16 - 暂无数据</title></rect><rect fill="#E8EAED" height="4" rx="1" ry="1" width="4" x="188.2000000000001" y="19.7"><title>2026-08-17 - 暂无数据</title></rect><rect fill="#E8EAED" height="4" rx="1" ry="1" width="4" x="188.2000000000001" y="25.1"><title>2026-08-18 - 暂无数据</title></rect><rect fill="#E8EAED" height="4" rx="1" ry="1" width="4" x="188.2000000000001" y="30.5"><title>2026-08-19 - 暂无数据</title></rect><rect fill="#E8EAED" height="4" rx="1" ry="1" width="4" x="188.2000000000001" y="35.9"><title>2026-08-20 - 暂无数据</title></rect><rect fill="#E8EAED" height="4" rx="1" ry="1" width="4" x="188.2000000000001" y="41.300000000000004"><title>2026-08-21 - 暂无数据</title></rect><rect fill="#E8EAED" height="4" rx="1" ry="1" width="4" x="188.2000000000001" y="46.699999999999996"><title>2026-08-22 - 暂无数据</title></rect><rect fill="#E8EAED" height="4" rx="1" ry="1" width="4" x="188.2000000000001" y="52.1"><title>2026-08-23 - 暂无数据</title></rect><rect fill="#E8EAED" height="4" rx="1" ry="1" width="4" x="193.6000000000001" y="19.7"><title>2026-08-24 - 暂无数据</title></rect><rect fill="#E8EAED" height="4" rx="1" ry="1" width="4" x="193.6000000000001" y="25.1"><title>2026-08-25 - 暂无数据</title></rect><rect fill="#E8EAED" height="4" rx="1" ry="1" width="4" x="193.6000000000001" y="30.5"><title>2026-08-26 - 暂无数据</title></rect><rect fill="#E8EAED" height="4" rx="1" ry="1" width="4" x="193.6000000000001" y="35.9"><title>2026-08-27 - 暂无数据</title></rect><rect fill="#E8EAED" height="4" rx="1" ry="1" width="4" x="193.6000000000001" y="41.300000000000004"><title>2026-08-28 - 暂无数据</title></rect><rect fill="#E8EAED" height="4" rx="1" ry="1" width="4" x="193.6000000000001" y="46.699999999999996"><title>2026-08-29 - 暂无数据</title></rect><rect fill="#E8EAED" height="4" rx="1" ry="1" width="4" x="193.6000000000001" y="52.1"><title>2026-08-30 - 暂无数据</title></rect><rect fill="#E8EAED" height="4" rx="1" ry="1" width="4" x="199.0000000000001" y="19.7"><title>2026-08-31 - 暂无数据</title></rect><rect fill="#E8EAED" height="4" rx="1" ry="1" width="4" x="199.0000000000001" y="25.1"><title>2026-09-01 - 暂无数据</title></rect><rect fill="#E8EAED" height="4" rx="1" ry="1" width="4" x="199.0000000000001" y="30.5"><title>2026-09-02 - 暂无数据</title></rect><rect fill="#E8EAED" height="4" rx="1" ry="1" width="4" x="199.0000000000001" y="35.9"><title>2026-09-03 - 暂无数据</title></rect><rect fill="#E8EAED" height="4" rx="1" ry="1" width="4" x="199.0000000000001" y="41.300000000000004"><title>2026-09-04 - 暂无数据</title></rect><rect fill="#E8EAED" height="4" rx="1" ry="1" width="4" x="199.0000000000001" y="46.699999999999996"><title>2026-09-05 - 暂无数据</title></rect><rect fill="#E8EAED" height="4" rx="1" ry="1" width="4" x="199.0000000000001" y="52.1"><title>2026-09-06 - 暂无数据</title></rect><text fill="#000000" style="font-size:2.5px; font-family:Arial" x="204.40000000000012" y="18.3">Sep</text><rect fill="#E8EAED" height="4" rx="1" ry="1" width="4" x="204.40000000000012" y="19.7"><title>2026-09-07 - 暂无数据</title></rect><rect fill="#E8EAED" height="4" rx="1" ry="1" width="4" x="204.40000000000012" y="25.1"><title>2026-09-08 - 暂无数据</title></rect><rect fill="#E8EAED" height="4" rx="1" ry="1" width="4" x="204.40000000000012" y="30.5"><title>2026-09-09 - 暂无数据</title></rect><rect fill="#E8EAED" height="4" rx="1" ry="1" width="4" x="204.40000000000012" y="35.9"><title>2026-09-10 - 暂无数据</title></rect><rect fill="#E8EAED" height="4" rx="1" ry="1" width="4" x="204.40000000000012" y="41.300000000000004"><title>2026-09-11 - 暂无数据</title></rect><rect fill="#E8EAED" height="4" rx="1" ry="1" width="4" x="204.40000000000012" y="46.699999999999996"><title>2026-09-12 - 暂无数据</title></rect><rect fill="#E8EAED" height="4" rx="1" ry="1" width="4" x="204.40000000000012" y="52.1"><title>2026-09-13 - 暂无数据</title></rect><rect fill="#E8EAED" height="4" rx="1" ry="1" width="4" x="209.80000000000013" y="19.7"><title>2026-09-14 - 暂无数据</title></rect><rect fill="#E8EAED" height="4" rx="1" ry="1" width="4" x="209.80000000000013" y="25.1"><title>2026-09-15 - 暂无数据</title></rect><rect fill="#E8EAED" height="4" rx="1" ry="1" width="4" x="209.80000000000013" y="30.5"><title>2026-09-16 - 暂无数据</title></rect><rect fill="#E8EAED" height="4" rx="1" ry="1" width="4" x="209.80000000000013" y="35.9"><title>2026-09-17 - 暂无数据</title></rect><rect fill="#E8EAED" height="4" rx="1" ry="1" width="4" x="209.80000000000013" y="41.300000000000004"><title>2026-09-18 - 暂无数据</title></rect><rect fill="#E8EAED" height="4" rx="1" ry="1" width="4" x="209.80000000000013" y="46.699999999999996"><title>2026-09-19 - 暂无数据</title></rect><rect fill="#E8EAED" height="4" rx="1" ry="1" width="4" x="209.80000000000013" y="52.1"><title>2026-09-20 - 暂无数据</title></rect><rect fill="#E8EAED" height="4" rx="1" ry="1" width="4" x="215.20000000000013" y="19.7"><title>2026-09-21 - 暂无数据</title></rect><rect fill="#E8EAED" height="4" rx="1" ry="1" width="4" x="215.20000000000013" y="25.1"><title>2026-09-22 - 暂无数据</title></rect><rect fill="#E8EAED" height="4" rx="1" ry="1" width="4" x="215.20000000000013" y="30.5"><title>2026-09-23 - 暂无数据</title></rect><rect fill="#E8EAED" height="4" rx="1" ry="1" width="4" x="215.20000000000013" y="35.9"><title>2026-09-24 - 暂无数据</title></rect><rect fill="#E8EAED" height="4" rx="1" ry="1" width="4" x="215.20000000000013" y="41.300000000000004"><title>2026-09-25 - 暂无数据</title></rect><rect fill="#E8EAED" height="4" rx="1" ry="1" width="4" x="215.20000000000013" y="46.699999999999996"><title>2026-09-26 - 暂无数据</title></rect><rect fill="#E8EAED" height="4" rx="1" ry="1" width="4" x="215.20000000000013" y="52.1"><title>2026-09-27 - 暂无数据</title></rect><rect fill="#E8EAED" height="4" rx="1" ry="1" width="4" x="220.60000000000014" y="19.7"><title>2026-09-28 - 暂无数据</title></rect><rect fill="#E8EAED" height="4" rx="1" ry="1" width="4" x="220.60000000000014" y="25.1"><title>2026-09-29 - 暂无数据</title></rect><rect fill="#E8EAED" height="4" rx="1" ry="1" width="4" x="220.60000000000014" y="30.5"><title>2026-09-30 - 暂无数据</title></rect><rect fill="#E8EAED" height="4" rx="1" ry="1" width="4" x="220.60000000000014" y="35.9"><title>2026-10-01 - 暂无数据</title></rect><rect fill="#E8EAED" height="4" rx="1" ry="1" width="4" x="220.60000000000014" y="41.300000000000004"><title>2026-10-02 - 暂无数据</title></rect><rect fill="#E8EAED" height="4" rx="1" ry="1" width="4" x="220.60000000000014" y="46.699999999999996"><title>2026-10-03 - 暂无数据</title></rect><rect fill="#E8EAED" height="4" rx="1" ry="1" width="4" x="220.60000000000014" y="52.1"><title>2026-10-04 - 暂无数据</title></rect><text fill="#000000" style="font-size:2.5px; font-family:Arial" x="226.00000000000014" y="18.3">Oct</text><rect fill="#E8EAED" height="4" rx="1" ry="1" width="4" x="226.00000000000014" y="19.7"><title>2026-10-05 - 暂无数据</title></rect><rect fill="#E8EAED" height="4" rx="1" ry="1" width="4" x="226.00000000000014" y="25.1"><title>2026-10-06 - 暂无数据</title></rect><rect fill="#E8EAED" height="4" rx="1" ry="1" width="4" x="226.00000000000014" y="30.5"><title>2026-10-07 - 暂无数据</title></rect><rect fill="#E8EAED" height="4" rx="1" ry="1" width="4" x="226.00000000000014" y="35.9"><title>2026-10-08 - 暂无数据</title></rect><rect fill="#E8EAED" height="4" rx="1" ry="1" width="4" x="226.00000000000014" y="41.300000000000004"><title>2026-10-09 - 暂无数据</title></rect><rect fill="#E8EAED" height="4" rx="1" ry="1" width="4" x="226.00000000000014" y="46.699999999999996"><title>2026-10-10 - 暂无数据</title></rect><rect fill="#E8EAED" height="4" rx="1" ry="1" width="4" x="226.00000000000014" y="52.1"><title>2026-10-11 - 暂无数据</title></rect><rect fill="#E8EAED" height="4" rx="1" ry="1" width="4" x="231.40000000000015" y="19.7"><title>2026-10-12 - 暂无数据</title></rect><rect fill="#E8EAED" height="4" rx="1" ry="1" width="4" x="231.40000000000015" y="25.1"><title>2026-10-13 - 暂无数据</title></rect><rect fill="#E8EAED" height="4" rx="1" ry="1" width="4" x="231.40000000000015" y="30.5"><title>2026-10-14 - 暂无数据</title></rect><rect fill="#E8EAED" height="4" rx="1" ry="1" width="4" x="231.40000000000015" y="35.9"><title>2026-10-15 - 暂无数据</title></rect><rect fill="#E8EAED" height="4" rx="1" ry="1" width="4" x="231.40000000000015" y="41.300000000000004"><title>2026-10-16 - 暂无数据</title></rect><rect fill="#E8EAED" height="4" rx="1" ry="1" width="4" x="231.40000000000015" y="46.699999999999996"><title>2026-10-17 - 暂无数据</title></rect><rect fill="#E8EAED" height="4" rx="1" ry="1" width="4" x="231.40000000000015" y="52.1"><title>2026-10-18 - 暂无数据</title></rect><rect fill="#E8EAED" height="4" rx="1" ry="1" width="4" x="236.80000000000015" y="19.7"><title>2026-10-19 - 暂无数据</title></rect><rect fill="#E8EAED" height="4" rx="1" ry="1" width="4" x="236.80000000000015" y="25.1"><title>2026-10-20 - 暂无数据</title></rect><rect fill="#E8EAED" height="4" rx="1" ry="1" width="4" x="236.80000000000015" y="30.5"><title>2026-10-21 - 暂无数据</title></rect><rect fill="#E8EAED" height="4" rx="1" ry="1" width="4" x="236.80000000000015" y="35.9"><title>2026-10-22 - 暂无数据</title></rect><rect fill="#E8EAED" height="4" rx="1" ry="1" width="4" x="236.80000000000015" y="41.300000000000004"><title>2026-10-23 - 暂无数据</title></rect><rect fill="#E8EAED" height="4" rx="1" ry="1" width="4" x="236.80000000000015" y="46.699999999999996"><title>2026-10-24 - 暂无数据</title></rect><rect fill="#E8EAED" height="4" rx="1" ry="1" width="4" x="236.80000000000015" y="52.1"><title>2026-10-25 - 暂无数据</title></rect><rect fill="#E8EAED" height="4" rx="1" ry="1" width="4" x="242.20000000000016" y="19.7"><title>2026-10-26 - 暂无数据</title></rect><rect fill="#E8EAED" height="4" rx="1" ry="1" width="4" x="242.20000000000016" y="25.1"><title>2026-10-27 - 暂无数据</title></rect><rect fill="#E8EAED" height="4" rx="1" ry="1" width="4" x="242.20000000000016" y="30.5"><title>2026-10-28 - 暂无数据</title></rect><rect fill="#E8EAED" height="4" rx="1" ry="1" width="4" x="242.20000000000016" y="35.9"><title>2026-10-29 - 暂无数据</title></rect><rect fill="#E8EAED" height="4" rx="1" ry="1" width="4" x="242.20000000000016" y="41.300000000000004"><title>2026-10-30 - 暂无数据</title></rect><rect fill="#E8EAED" height="4" rx="1" ry="1" width="4" x="242.20000000000016" y="46.699999999999996"><title>2026-10-31 - 暂无数据</title></rect><rect fill="#E8EAED" height="4" rx="1" ry="1" width="4" x="242.20000000000016" y="52.1"><title>2026-11-01 - 暂无数据</title></rect><text fill="#000000" style="font-size:2.5px; font-family:Arial" x="247.60000000000016" y="18.3">Nov</text><rect fill="#E8EAED" height="4" rx="1" ry="1" width="4" x="247.60000000000016" y="19.7"><title>2026-11-02 - 暂无数据</title></rect><rect fill="#E8EAED" height="4" rx="1" ry="1" width="4" x="247.60000000000016" y="25.1"><title>2026-11-03 - 暂无数据</title></rect><rect fill="#E8EAED" height="4" rx="1" ry="1" width="4" x="247.60000000000016" y="30.5"><title>2026-11-04 - 暂无数据</title></rect><rect fill="#E8EAED" height="4" rx="1" ry="1" width="4" x="247.60000000000016" y="35.9"><title>2026-11-05 - 暂无数据</title></rect><rect fill="#E8EAED" height="4" rx="1" ry="1" width="4" x="247.60000000000016" y="41.300000000000004"><title>2026-11-06 - 暂无数据</title></rect><rect fill="#E8EAED" height="4" rx="1" ry="1" width="4" x="247.60000000000016" y="46.699999999999996"><title>2026-11-07 - 暂无数据</title></rect><rect fill="#E8EAED" height="4" rx="1" ry="1" width="4" x="247.60000000000016" y="52.1"><title>2026-11-08 - 暂无数据</title></rect><rect fill="#E8EAED" height="4" rx="1" ry="1" width="4" x="253.00000000000017" y="19.7"><title>2026-11-09 - 暂无数据</title></rect><rect fill="#E8EAED" height="4" rx="1" ry="1" width="4" x="253.00000000000017" y="25.1"><title>2026-11-10 - 暂无数据</title></rect><rect fill="#E8EAED" height="4" rx="1" ry="1" width="4" x="253.00000000000017" y="30.5"><title>2026-11-11 - 暂无数据</title></rect><rect fill="#E8EAED" height="4" rx="1" ry="1" width="4" x="253.00000000000017" y="35.9"><title>2026-11-12 - 暂无数据</title></rect><rect fill="#E8EAED" height="4" rx="1" ry="1" width="4" x="253.00000000000017" y="41.300000000000004"><title>2026-11-13 - 暂无数据</title></rect><rect fill="#E8EAED" height="4" rx="1" ry="1" width="4" x="253.00000000000017" y="46.699999999999996"><title>2026-11-14 - 暂无数据</title></rect><rect fill="#E8EAED" height="4" rx="1" ry="1" width="4" x="253.00000000000017" y="52.1"><title>2026-11-15 - 暂无数据</title></rect><rect fill="#E8EAED" height="4" rx="1" ry="1" width="4" x="258.40000000000015" y="19.7"><title>2026-11-16 - 暂无数据</title></rect><rect fill="#E8EAED" height="4" rx="1" ry="1" width="4" x="258.40000000000015" y="25.1"><title>2026-11-17 - 暂无数据</title></rect><rect fill="#E8EAED" height="4" rx="1" ry="1" width="4" x="258.40000000000015" y="30.5"><title>2026-11-18 - 暂无数据</title></rect><rect fill="#E8EAED" height="4" rx="1" ry="1" width="4" x="258.40000000000015" y="35.9"><title>2026-11-19 - 暂无数据</title></rect><rect fill="#E8EAED" height="4" rx="1" ry="1" width="4" x="258.40000000000015" y="41.300000000000004"><title>2026-11-20 - 暂无数据</title></rect><rect fill="#E8EAED" height="4" rx="1" ry="1" width="4" x="258.40000000000015" y="46.699999999999996"><title>2026-11-21 - 暂无数据</title></rect><rect fill="#E8EAED" height="4" rx="1" ry="1" width="4" x="258.40000000000015" y="52.1"><title>2026-11-22 - 暂无数据</title></rect><rect fill="#E8EAED" height="4" rx="1" ry="1" width="4" x="263.8000000000001" y="19.7"><title>2026-11-23 - 暂无数据</title></rect><rect fill="#E8EAED" height="4" rx="1" ry="1" width="4" x="263.8000000000001" y="25.1"><title>2026-11-24 - 暂无数据</title></rect><rect fill="#E8EAED" height="4" rx="1" ry="1" width="4" x="263.8000000000001" y="30.5"><title>2026-11-25 - 暂无数据</title></rect><rect fill="#E8EAED" height="4" rx="1" ry="1" width="4" x="263.8000000000001" y="35.9"><title>2026-11-26 - 暂无数据</title></rect><rect fill="#E8EAED" height="4" rx="1" ry="1" width="4" x="263.8000000000001" y="41.300000000000004"><title>2026-11-27 - 暂无数据</title></rect><rect fill="#E8EAED" height="4" rx="1" ry="1" width="4" x="263.8000000000001" y="46.699999999999996"><title>2026-11-28 - 暂无数据</title></rect><rect fill="#E8EAED" height="4" rx="1" ry="1" width="4" x="263.8000000000001" y="52.1"><title>2026-11-29 - 暂无数据</title></rect><rect fill="#E8EAED" height="4" rx="1" ry="1" width="4" x="269.2000000000001" y="19.7"><title>2026-11-30 - 暂无数据</title></rect><rect fill="#E8EAED" height="4" rx="1" ry="1" width="4" x="269.2000000000001" y="25.1"><title>2026-12-01 - 暂无数据</title></rect><rect fill="#E8EAED" height="4" rx="1" ry="1" width="4" x="269.2000000000001" y="30.5"><title>2026-12-02 - 暂无数据</title></rect><rect fill="#E8EAED" height="4" rx="1" ry="1" width="4" x="269.2000000000001" y="35.9"><title>2026-12-03 - 暂无数据</title></rect><rect fill="#E8EAED" height="4" rx="1" ry="1" width="4" x="269.2000000000001" y="41.300000000000004"><title>2026-12-04 - 暂无数据</title></rect><rect fill="#E8EAED" height="4" rx="1" ry="1" width="4" x="269.2000000000001" y="46.699999999999996"><title>2026-12-05 - 暂无数据</title></rect><rect fill="#E8EAED" height="4" rx="1" ry="1" width="4" x="269.2000000000001" y="52.1"><title>2026-12-06 - 暂无数据</title></rect><text fill="#000000" style="font-size:2.5px; font-family:Arial" x="274.6000000000001" y="18.3">Dec</text><rect fill="#E8EAED" height="4" rx="1" ry="1" width="4" x="274.6000000000001" y="19.7"><title>2026-12-07 - 暂无数据</title></rect><rect fill="#E8EAED" height="4" rx="1" ry="1" width="4" x="274.6000000000001" y="25.1"><title>2026-12-08 - 暂无数据</title></rect><rect fill="#E8EAED" height="4" rx="1" ry="1" width="4" x="274.6000000000001" y="30.5"><title>2026-12-09 - 暂无数据</title></rect><rect fill="#E8EAED" height="4" rx="1" ry="1" width="4" x="274.6000000000001" y="35.9"><title>2026-12-10 - 暂无数据</title></rect><rect fill="#E8EAED" height="4" rx="1" ry="1" width="4" x="274.6000000000001" y="41.300000000000004"><title>2026-12-11 - 暂无数据</title></rect><rect fill="#E8EAED" height="4" rx="1" ry="1" width="4" x="274.6000000000001" y="46.699999999999996"><title>2026-12-12 - 暂无数据</title></rect><rect fill="#E8EAED" height="4" rx="1" ry="1" width="4" x="274.6000000000001" y="52.1"><title>2026-12-13 - 暂无数据</title></rect><rect fill="#E8EAED" height="4" rx="1" ry="1" width="4" x="280.00000000000006" y="19.7"><title>2026-12-14 - 暂无数据</title></rect><rect fill="#E8EAED" height="4" rx="1" ry="1" width="4" x="280.00000000000006" y="25.1"><title>2026-12-15 - 暂无数据</title></rect><rect fill="#E8EAED" height="4" rx="1" ry="1" width="4" x="280.00000000000006" y="30.5"><title>2026-12-16 - 暂无数据</title></rect><rect fill="#E8EAED" height="4" rx="1" ry="1" width="4" x="280.00000000000006" y="35.9"><title>2026-12-17 - 暂无数据</title></rect><rect fill="#E8EAED" height="4" rx="1" ry="1" width="4" x="280.00000000000006" y="41.300000000000004"><title>2026-12-18 - 暂无数据</title></rect><rect fill="#E8EAED" height="4" rx="1" ry="1" width="4" x="280.00000000000006" y="46.699999999999996"><title>2026-12-19 - 暂无数据</title></rect><rect fill="#E8EAED" height="4" rx="1" ry="1" width="4" x="280.00000000000006" y="52.1"><title>2026-12-20 - 暂无数据</title></rect><rect fill="#E8EAED" height="4" rx="1" ry="1" width="4" x="285.40000000000003" y="19.7"><title>2026-12-21 - 暂无数据</title></rect><rect fill="#E8EAED" height="4" rx="1" ry="1" width="4" x="285.40000000000003" y="25.1"><title>2026-12-22 - 暂无数据</title></rect><rect fill="#E8EAED" height="4" rx="1" ry="1" width="4" x="285.40000000000003" y="30.5"><title>2026-12-23 - 暂无数据</title></rect><rect fill="#E8EAED" height="4" rx="1" ry="1" width="4" x="285.40000000000003" y="35.9"><title>2026-12-24 - 暂无数据</title></rect><rect fill="#E8EAED" height="4" rx="1" ry="1" width="4" x="285.40000000000003" y="41.300000000000004"><title>2026-12-25 - 暂无数据</title></rect><rect fill="#E8EAED" height="4" rx="1" ry="1" width="4" x="285.40000000000003" y="46.699999999999996"><title>2026-12-26 - 暂无数据</title></rect><rect fill="#E8EAED" height="4" rx="1" ry="1" width="4" x="285.40000000000003" y="52.1"><title>2026-12-27 - 暂无数据</title></rect><rect fill="#E8EAED" height="4" rx="1" ry="1" width="4" x="290.8" y="19.7"><title>2026-12-28 - 暂无数据</title></rect><rect fill="#E8EAED" height="4" rx="1" ry="1" width="4" x="290.8" y="25.1"><title>2026-12-29 - 暂无数据</title></rect><rect fill="#E8EAED" height="4" rx="1" ry="1" width="4" x="290.8" y="30.5"><title>2026-12-30 - 暂无数据</title></rect><rect fill="#E8EAED" height="4" rx="1" ry="1" width="4" x="290.8" y="35.9"><title>2026-12-31 - 暂无数据</title></rect></svg>